<?xml version="1.0" encoding="UTF-8" standalone="no"?>
<!-- Created with Inkscape (http://www.inkscape.org/) -->

<svg
   xmlns:dc="http://purl.org/dc/elements/1.1/"
   xmlns:cc="http://creativecommons.org/ns#"
   xmlns:rdf="http://www.w3.org/1999/02/22-rdf-syntax-ns#"
   xmlns:svg="http://www.w3.org/2000/svg"
   xmlns="http://www.w3.org/2000/svg"
   xmlns:sodipodi="http://sodipodi.sourceforge.net/DTD/sodipodi-0.dtd"
   xmlns:inkscape="http://www.inkscape.org/namespaces/inkscape"
   sodipodi:docname="dove.svg"
   inkscape:version="0.92.3 (2405546, 2018-03-11)"
   id="svg821"
   version="1.1"
   viewBox="0 0 100 100"
   height="100"
   width="100"
   inkscape:export-filename="/home/daniele/hack/git/alice/alice-pwa/src/assets/trailer/mappa/spade.png"
   inkscape:export-xdpi="96"
   inkscape:export-ydpi="96">
  <sodipodi:namedview
     inkscape:window-maximized="1"
     inkscape:window-y="27"
     inkscape:window-x="1987"
     inkscape:window-height="1025"
     inkscape:window-width="1853"
     units="px"
     showgrid="false"
     inkscape:current-layer="layer3"
     inkscape:document-units="px"
     inkscape:cy="61.000865"
     inkscape:cx="37.15581"
     inkscape:zoom="5.946768"
     inkscape:pageshadow="2"
     inkscape:pageopacity="0.0"
     borderopacity="1.0"
     bordercolor="#666666"
     pagecolor="#ffffff"
     id="base"
     objecttolerance="5"
     showborder="true" />
  <defs
     id="defs815">
    <inkscape:path-effect
       effect="bend_path"
       id="path-effect9306"
       is_visible="true"
       bendpath="m -22.627417,-26.130171 c 13.8555829,-6.377503 34.730971,3.22259 48.197444,21.2153127 6.577315,8.7880329 45.335343,-29.9756047 53.272378,-21.2153127"
       prop_scale="1.6691343"
       scale_y_rel="false"
       vertical="false"
       bendpath-nodetypes="csc" />
    <clipPath
       id="clipPath889"
       clipPathUnits="userSpaceOnUse">
      <path
         sodipodi:nodetypes="ccccccccccccccccccccccccc"
         inkscape:connector-curvature="0"
         id="path891"
         d="m -1.5152288,16.662415 -8.0812203,-0.505076 -0.8838839,-3.661803 0.8838839,-2.6516503 -8.7125659,2.0203053 -5.555839,-4.0406102 -2.525382,-8.08122026 0.12627,-6.81852964 7.828683,-6.5659919 5.934645,-5.3033 13.00571427,0.378807 7.07106783,-0.757614 4.7982249,2.146574 0.808561,3.370743 3.105779,1.806288 6.81853,4.4194176 3.030458,8.20748942 -1.515229,4.67195548 -2.584537,0.1707136 -0.445921,3.4910891 -10.606601,3.1567268 -7.323606,4.166879 -0.1262691,3.661803 -4.5456865,0.378808 z"
         style="fill:none;stroke:#000000;stroke-width:1px;stroke-linecap:butt;stroke-linejoin:miter;stroke-opacity:1" />
    </clipPath>
    <clipPath
       id="clipPath298"
       clipPathUnits="userSpaceOnUse">
      <path
         inkscape:connector-curvature="0"
         id="path296"
         d="M 0,0 H 1133.858 V 1041.732 H 0 Z" />
    </clipPath>
    <clipPath
       id="clipPath350"
       clipPathUnits="userSpaceOnUse">
      <path
         inkscape:connector-curvature="0"
         id="path348"
         d="M 0,0 H 1133.858 V 1041.732 H 0 Z" />
    </clipPath>
    <clipPath
       id="clipPath498"
       clipPathUnits="userSpaceOnUse">
      <path
         inkscape:connector-curvature="0"
         id="path496"
         d="M 0,0 H 1133.858 V 1041.732 H 0 Z" />
    </clipPath>
    <clipPath
       id="clipPath457"
       clipPathUnits="userSpaceOnUse">
      <path
         inkscape:connector-curvature="0"
         id="path459"
         d="m 77.529208,50.313121 0.536644,0.126269 0.726047,0.06313 1.262691,0.34724 0.34724,0.157836 0.473509,0.126269 0.06313,0.142053 0.07892,0.142053 0.03157,0.06313 0.647129,0.142053 0.394591,0.189404 0.647128,0.441941 0.34724,0.457726 0.236755,0.473509 c 0,0 0.284105,0.536643 0.315673,0.615561 0.03157,0.07892 0.284105,0.741831 0.284105,0.741831 l 0.599778,1.010153 c 0,0 0.331456,0.662912 0.378807,0.74183 0.04735,0.07892 0.599778,1.373177 0.599778,1.373177 l 0.615562,1.846685 1.341609,4.687739 0.441942,1.073287 0.647129,1.515229 0.489292,0.915451 0.0947,0.04735 0.06314,0.110486 -0.01578,0.118377 0.157836,0.244646 1.089071,1.144314 0.03946,0.02367 h 0.118377 l 0.536644,0.355132 0.797074,0.560319 0.236754,0.228863 0.773398,0.741831 0.512968,0.497184 0.142053,0.110485 0.06313,0.05524 0.181512,0.0079 0.228863,0.244646 0.670804,0.04735 0.284106,0.08681 0.26043,0.213079 0.189403,0.126269 0.03157,0.149945 0.149944,0.134161 0.17362,0.149944 0.102594,0.04735 0.0947,0.01578 0.04735,0.07892 0.418267,0.06314 0.426158,0.13416 0.126269,0.165729 -0.01578,0.07892 0.0079,0.149944 0.220971,0.197296 0.142053,0.370915 -0.149945,0.17362 -0.17362,0.02368 -0.252538,0.118378 c 0,0 -0.733939,0.02367 -0.765506,0.03157 -0.03157,0.0079 -0.8681,-0.0079 -0.923343,-0.0079 -0.05524,0 -1.191664,-0.181512 -1.191664,-0.181512 l -2.904189,-0.60767 -2.470138,-0.733938 -3.054134,-0.852317 -0.536643,-0.205187 -0.205187,-0.197295 -0.0947,-0.410375 0.04735,-0.797073 0.06313,-0.03157 0.331457,-0.03946 0.268321,-0.02367 0.01578,-0.402483 0.489293,-1.246907 -0.299889,-1.073287 -0.134161,-0.339348 -0.355132,-0.284105 -0.220971,-0.418267 -1.602039,-2.233384 -0.26043,-0.339348 -1.152205,1.680957 -0.875992,1.096962 -0.662912,1.049612 -0.923343,1.617823 -0.236754,0.797073 -0.149945,0.363024 -0.03946,0.291997 -0.03946,0.544535 0.08681,0.410375 0.05524,0.05524 0.213079,-0.03946 0.08681,0.03946 0.04735,0.142053 0.536643,0.418266 1.12853,0.8681 0.670804,0.441942 0.244647,0.01578 0.07103,0.149944 0.623454,0.244646 0.205187,-0.07103 0.276213,0.118377 0.315673,-0.126269 0.291997,0.165728 0.03157,0.26043 c 0,0 -0.142053,0.228863 -0.181512,0.26043 -0.03946,0.03157 0.142053,0.17362 0.142053,0.17362 l 0.165728,0.0947 0.355131,0.03946 0.220971,0.0079 0.276214,0.17362 0.0079,0.0947 0.0947,0.17362 0.07892,0.307781 -0.268322,0.505076 -0.363024,0.386699 c 0,0 -0.702371,0.252538 -0.789181,0.284105 -0.08681,0.03157 -1.554688,0.149945 -1.602039,0.149945 -0.04735,0 -1.089071,-0.189404 -1.152205,-0.205187 -0.06313,-0.01578 -2.225493,-0.639238 -2.225493,-0.639238 0,0 -2.170249,-0.91545 -2.209708,-0.923342 -0.03946,-0.0079 -0.828641,-0.149945 -0.8681,-0.17362 -0.03946,-0.02368 -0.931235,-0.789182 -0.931235,-0.789182 l -0.34724,-0.505076 c 0,0 -0.102593,-0.323565 -0.110485,-0.355132 -0.0079,-0.03157 0.134161,-0.481401 0.134161,-0.481401 l 0.189403,-0.13416 0.17362,-0.134161 0.299889,-0.568211 0.213079,-0.315673 0.615562,-1.207448 0.34724,-1.21534 0.844425,-3.803855 0.441941,-1.657282 0.252538,-0.497184 0.355132,-0.741831 0.844425,-1.420527 0.457725,-0.678696 0.07892,-0.110486 -0.142053,-0.03946 -2.04398,0.331456 -0.142053,1.90982 -0.126269,0.07892 -7.954951,0.252538 z"
         style="fill:#ffffff;stroke:none;stroke-width:1px;stroke-linecap:butt;stroke-linejoin:miter;stroke-opacity:1" />
    </clipPath>
    <clipPath
       clipPathUnits="userSpaceOnUse"
       id="clipPath2726">
      <path
         sodipodi:nodetypes="cccsccccccscccssccscscccccccccccscscccscsccccccccccccscsccccccscsccccccsccccsccsscccccsscccscscccccccccccccccccccccccccccsccsccccsc"
         inkscape:connector-curvature="0"
         id="path2728"
         d="m 52.358948,-24.117022 c -0.301592,-0.05985 -0.679046,-0.131409 -0.838787,-0.159029 -0.270637,-0.04679 -0.293274,-0.07224 -0.332036,-0.373276 -0.09802,-0.761259 -0.200049,-3.240008 -0.200049,-4.86026 v -1.751023 l -0.215422,-0.0291 c -0.118483,-0.01601 -0.581884,-0.01654 -1.02978,-0.0012 l -0.814357,0.02791 0.05322,1.852771 c 0.06705,2.334158 -0.051,4.86495 -0.23322,4.999857 -0.204033,0.151057 -1.99056,0.383071 -1.99056,0.258513 0,-0.03153 0.110436,-0.103077 0.245414,-0.158987 0.134977,-0.05591 0.345936,-0.186238 0.468799,-0.28962 l 0.223385,-0.187966 -0.194624,-0.286417 c -0.181151,-0.266589 -0.263531,-0.641727 -0.140923,-0.641727 0.02954,0 0.135289,0.07665 0.235007,0.170326 l 0.181303,0.170326 v -0.294357 c 0,-0.331941 0.152247,-0.356524 0.250743,-0.04049 0.03257,0.104517 0.04202,-0.05673 0.02099,-0.358318 -0.02103,-0.301592 -0.07453,-1.233906 -0.118904,-2.071811 -0.04437,-0.837905 -0.113672,-1.666303 -0.154005,-1.840884 -0.04033,-0.174582 -0.07426,-0.546553 -0.07539,-0.826603 l -0.0021,-0.50918 c -3.688116,-0.0039 -7.805134,-0.05113 -10.887175,-0.187464 -1.118091,-0.0502 -1.699271,-0.04929 -1.731403,0.0027 -0.0266,0.04304 -0.0555,0.719115 -0.06422,1.502384 -0.01573,1.41336 -0.191847,4.19433 -0.303307,4.789347 l -0.0581,0.310137 -0.625875,0.09683 c -0.861186,0.133234 -1.486106,0.160935 -1.494571,0.06625 -0.0039,-0.04308 0.294016,-0.176447 0.661928,-0.296362 0.367913,-0.119915 0.680958,-0.230054 0.695659,-0.244753 0.0147,-0.0147 -0.05789,-0.128095 -0.16131,-0.251987 -0.280594,-0.336138 -0.463037,-0.731821 -0.405106,-0.878598 0.04256,-0.10783 0.09031,-0.08374 0.279842,0.141199 l 0.228527,0.271215 v -0.290799 c 0,-0.298723 0.117121,-0.398182 0.181007,-0.153712 0.04567,0.174768 0.09674,-2.772919 0.07566,-4.367204 -0.05151,-3.895668 -0.02141,-12.047606 0.06176,-16.72463 0.05286,-2.972832 0.09204,-6.030854 0.08707,-6.795605 l -0.009,-1.390452 1.466405,-0.01958 c 0.806522,-0.01077 1.889416,-0.02005 2.40643,-0.02062 0.517015,-5.72e-4 1.532442,-0.03138 2.256506,-0.06845 1.299912,-0.06656 1.314463,-0.06929 1.156285,-0.216654 -0.425251,-0.396182 -0.482281,-0.902467 -0.207005,-1.837685 0.06199,-0.210598 0.154695,-0.695816 0.206015,-1.078263 l 0.09331,-0.695358 0.427513,0.479935 0.427513,0.479936 h 0.506814 c 0.530348,0 0.828683,0.107205 1.229647,0.441866 0.121788,0.10165 0.26546,0.184818 0.319271,0.184818 0.05381,0 0.181979,0.08956 0.284817,0.199029 0.159385,0.169658 0.185005,0.270207 0.173611,0.681335 -0.0092,0.332686 -0.05909,0.544329 -0.160746,0.682244 -0.08106,0.109967 -0.165776,0.296881 -0.188261,0.415363 -0.03845,0.202589 -0.02403,0.215515 0.242012,0.216966 0.155593,8.48e-4 0.864537,0.02729 1.575432,0.05875 1.732446,0.07668 4.037638,0.0721 6.715799,-0.01335 l 2.211508,-0.07056 -0.05654,-0.203617 c -0.0998,-0.359408 -0.03607,-1.054216 0.132668,-1.446398 0.376772,-0.87569 0.812559,-1.184517 1.645996,-1.16646 0.437864,0.0095 0.520952,-0.01188 0.625141,-0.16078 0.06609,-0.09445 0.244233,-0.309223 0.395877,-0.477282 l 0.275718,-0.305562 0.04948,0.227226 c 0.02722,0.124975 0.05365,0.406656 0.05875,0.625957 0.0051,0.219302 0.07977,0.674391 0.165939,1.011309 0.20933,0.81847 0.200719,1.16444 -0.03917,1.573775 l -0.195837,0.334171 0.41126,0.0459 c 0.766267,0.08552 3.849971,0.199351 5.414286,0.199868 l 1.556262,5.14e-4 -0.04817,0.176255 c -0.02649,0.09694 -0.01258,3.154962 0.03092,6.795605 0.0435,3.640642 0.09649,8.41715 0.117762,10.61446 0.05317,5.492349 0.102737,7.912134 0.194605,9.500815 0.04306,0.744657 0.08068,1.802187 0.08359,2.350065 0.0043,0.816723 0.02159,0.960869 0.09575,0.800304 0.159001,-0.344261 0.417082,-0.437404 0.337909,-0.121954 -0.04681,0.186521 -0.04255,0.188525 0.167762,0.07882 0.221765,-0.115682 0.411637,-0.147609 0.411637,-0.06922 0,0.131502 -0.193315,0.366612 -0.438339,0.53311 l -0.277756,0.18874 0.338464,0.121026 c 0.186155,0.06656 0.49489,0.169575 0.686077,0.228912 0.346153,0.107434 0.525031,0.293934 0.281921,0.293934 -0.140804,0 -1.885507,-0.299916 -2.088774,-0.359063 -0.146558,-0.04264 -0.283862,-0.504232 -0.335926,-1.129312 -0.162884,-1.955562 -0.26703,-3.767397 -0.27467,-4.778465 l -0.0062,-0.822523 c -4.269232,0 -8.538465,0 -12.807697,0 l -0.05619,1.057529 c -0.0309,0.581641 -0.09208,1.498167 -0.135951,2.036723 -0.04387,0.538557 -0.09816,1.490333 -0.120647,2.115059 l -0.04089,1.135865 0.147192,-0.395694 c 0.217057,-0.583513 0.380432,-0.87168 0.525825,-0.927473 0.110705,-0.04248 0.121726,-0.0093 0.07664,0.231077 -0.02896,0.154381 -0.07467,0.338064 -0.101581,0.408185 -0.03751,0.09774 0.0094,0.086 0.200755,-0.0503 0.207031,-0.147419 0.257281,-0.157973 0.294191,-0.06179 0.06401,0.166817 -0.149579,0.538044 -0.472918,0.821939 l -0.279092,0.245045 0.465222,0.234844 c 0.798962,0.403314 0.666941,0.48771 -0.424223,0.271188 z m 0.04411,-1.339744 c 0.184246,-0.535519 0.133718,-0.653704 -0.07438,-0.173992 -0.179024,0.412676 -0.301237,0.974351 -0.164232,0.754778 0.04757,-0.07623 0.154944,-0.337586 0.238617,-0.580786 z m 0.170289,0.425631 c 0.130949,-0.140025 0.294909,-0.341868 0.364354,-0.448541 l 0.126266,-0.193951 -0.204014,0.153155 c -0.214127,0.160745 -0.666202,0.743927 -0.576683,0.743927 0.02859,0 0.159127,-0.114566 0.290077,-0.25459 z m 14.199335,-0.137088 c 0.162645,-0.129253 0.2631,-0.235006 0.223235,-0.235006 -0.08128,0 -0.642148,0.461839 -0.566932,0.466829 0.02639,0.0018 0.181052,-0.102569 0.343697,-0.231823 z m -19.124903,-0.07592 c -0.07557,-0.127928 -0.150881,-0.219114 -0.16736,-0.202636 -0.03349,0.03349 0.21589,0.435232 0.270171,0.435232 0.01902,0 -0.02724,-0.104668 -0.102811,-0.232596 z"
         style="fill:#000000;stroke:none;stroke-width:1;stroke-miterlimit:4;stroke-dasharray:none" />
    </clipPath>
    <clipPath
       clipPathUnits="userSpaceOnUse"
       id="clipPath2727">
      <path
         style="display:inline;opacity:1;vector-effect:none;fill:#d20258;fill-opacity:1;stroke:none;stroke-width:1;stroke-linecap:round;stroke-linejoin:miter;stroke-miterlimit:4;stroke-dasharray:none;stroke-dashoffset:0;stroke-opacity:1;paint-order:markers fill stroke"
         d="m 52.634628,65.30576 c -13.749852,0.455896 -26.907121,14.873034 -26.101562,26.75 0.699685,10.31601 9.413334,14.98867 19.185546,16.0957 2.88728,0.49464 4.608892,3.2496 5.742188,7.14258 0.85777,-3.12546 2.339839,-7.02461 5.505859,-7.40039 l -0.134765,0.002 C 67.743417,106.0338 75.6451,99.084506 76.45885,86.475729 77.1063,76.443822 69.7127,66.944119 55.388534,65.405416 c -0.917976,-0.09861 -1.837249,-0.130002 -2.753906,-0.09961 z"
         id="path2729"
         inkscape:connector-curvature="0"
         inkscape:export-filename="/home/daniele/hack/git/alice/alice-pwa/src/assets/trailer/mappa/carte.png"
         inkscape:export-xdpi="124.79964"
         inkscape:export-ydpi="124.79964" />
    </clipPath>
    <clipPath
       clipPathUnits="userSpaceOnUse"
       id="clipPath2915">
      <path
         style="opacity:1;vector-effect:none;fill:#d20258;fill-opacity:1;stroke:#d20258;stroke-width:1.01237428;stroke-linecap:round;stroke-linejoin:miter;stroke-miterlimit:4;stroke-dasharray:none;stroke-dashoffset:0;stroke-opacity:1;paint-order:markers fill stroke"
         d="m -62.538403,87.164329 h 27.573832 v 10.689172 h -27.573832 z"
         id="path2917"
         inkscape:connector-curvature="0" />
    </clipPath>
    <clipPath
       clipPathUnits="userSpaceOnUse"
       id="clipPath2926">
      <path
         style="opacity:1;vector-effect:none;fill:#d20258;fill-opacity:1;stroke:#d20258;stroke-width:1;stroke-linecap:round;stroke-linejoin:miter;stroke-miterlimit:4;stroke-dasharray:none;stroke-dashoffset:0;stroke-opacity:1;paint-order:markers fill stroke"
         d="m -34.472507,85.370201 h 13.789009 v 12.94821 h -13.789009 z"
         id="path2928"
         inkscape:connector-curvature="0" />
    </clipPath>
    <clipPath
       id="clipPath2856"
       clipPathUnits="userSpaceOnUse">
      <path
         style="clip-rule:evenodd"
         inkscape:connector-curvature="0"
         id="path2854"
         d="M 0,0 H 2483.3333 V 3540.4702 H 0 Z" />
    </clipPath>
    <clipPath
       id="clipPath2870"
       clipPathUnits="userSpaceOnUse">
      <path
         style="clip-rule:evenodd"
         inkscape:connector-curvature="0"
         id="path2868"
         d="M 0,0 H 2483.3333 V 3512.3215 H 0 Z" />
    </clipPath>
    <clipPath
       id="clipPath2882"
       clipPathUnits="userSpaceOnUse">
      <path
         style="clip-rule:evenodd"
         inkscape:connector-curvature="0"
         id="path2880"
         d="M 777.21301,571.01196 H 1246.3566 V 940.07153 H 777.21301 Z" />
    </clipPath>
    <clipPath
       id="clipPath2902"
       clipPathUnits="userSpaceOnUse">
      <path
         style="clip-rule:evenodd"
         inkscape:connector-curvature="0"
         id="path2900"
         d="M 940.50104,571.01196 H 1084.3717 V 789.94561 H 940.50104 Z" />
    </clipPath>
    <clipPath
       id="clipPath2914"
       clipPathUnits="userSpaceOnUse">
      <path
         style="clip-rule:evenodd"
         inkscape:connector-curvature="0"
         id="path2912"
         d="m 777.21301,1359.6213 h 519.18559 v 268.9756 H 777.21301 Z" />
    </clipPath>
    <clipPath
       id="clipPath2950"
       clipPathUnits="userSpaceOnUse">
      <path
         style="clip-rule:evenodd"
         inkscape:connector-curvature="0"
         id="path2948"
         d="m 942.29871,1198.7325 h 140.74309 v 218.9338 H 942.29871 Z" />
    </clipPath>
    <clipPath
       id="clipPath2962"
       clipPathUnits="userSpaceOnUse">
      <path
         style="clip-rule:evenodd"
         inkscape:connector-curvature="0"
         id="path2960"
         d="M 0,0 H 2483.3333 V 3512.3215 H 0 Z" />
    </clipPath>
    <clipPath
       id="clipPath2990"
       clipPathUnits="userSpaceOnUse">
      <path
         style="clip-rule:evenodd"
         inkscape:connector-curvature="0"
         id="path2988"
         d="m 730.42737,1959.928 h 173.8855 v 173.8855 h -173.8855 z" />
    </clipPath>
    <clipPath
       id="clipPath3004"
       clipPathUnits="userSpaceOnUse">
      <path
         style="clip-rule:evenodd"
         inkscape:connector-curvature="0"
         id="path3002"
         d="M 0,0 H 2483.3333 V 3512.3215 H 0 Z" />
    </clipPath>
    <clipPath
       id="clipPath3020"
       clipPathUnits="userSpaceOnUse">
      <path
         style="clip-rule:evenodd"
         inkscape:connector-curvature="0"
         id="path3018"
         d="m 1141.625,1978.1943 h 183.5035 v 140.7432 H 1141.625 Z" />
    </clipPath>
    <clipPath
       id="clipPath3032"
       clipPathUnits="userSpaceOnUse">
      <path
         style="clip-rule:evenodd"
         inkscape:connector-curvature="0"
         id="path3030"
         d="M 0,0 H 2483.3333 V 3512.3215 H 0 Z" />
    </clipPath>
    <clipPath
       id="clipPath3048"
       clipPathUnits="userSpaceOnUse">
      <path
         style="clip-rule:evenodd"
         inkscape:connector-curvature="0"
         id="path3046"
         d="m 1511.3334,1951.4347 h 187.6574 v 193.9127 h -187.6574 z" />
    </clipPath>
    <clipPath
       id="clipPath3062"
       clipPathUnits="userSpaceOnUse">
      <path
         style="clip-rule:evenodd"
         inkscape:connector-curvature="0"
         id="path3060"
         d="M 0,0 H 2483.3333 V 3512.3215 H 0 Z" />
    </clipPath>
    <clipPath
       id="clipPath3078"
       clipPathUnits="userSpaceOnUse">
      <path
         style="clip-rule:evenodd"
         inkscape:connector-curvature="0"
         id="path3076"
         d="m 1954.079,1964.6448 h 159.5089 v 56.2972 H 1954.079 Z" />
    </clipPath>
    <clipPath
       id="clipPath3090"
       clipPathUnits="userSpaceOnUse">
      <path
         style="clip-rule:evenodd"
         inkscape:connector-curvature="0"
         id="path3088"
         d="m 1948.2151,2064.9053 h 149.3928 v 52.4368 h -149.3928 z" />
    </clipPath>
    <clipPath
       id="clipPath3102"
       clipPathUnits="userSpaceOnUse">
      <path
         style="clip-rule:evenodd"
         inkscape:connector-curvature="0"
         id="path3100"
         d="M 0,0 H 2483.3333 V 3512.3215 H 0 Z" />
    </clipPath>
    <clipPath
       id="clipPath3114"
       clipPathUnits="userSpaceOnUse">
      <path
         style="clip-rule:evenodd"
         inkscape:connector-curvature="0"
         id="path3112"
         d="M 673.83783,2269.2727 H 958.4516 v 284.6138 H 673.83783 Z" />
    </clipPath>
    <clipPath
       id="clipPath2882-7"
       clipPathUnits="userSpaceOnUse">
      <path
         style="clip-rule:evenodd"
         inkscape:connector-curvature="0"
         id="path2880-5"
         d="M 777.21301,571.01196 H 1246.3566 V 940.07153 H 777.21301 Z" />
    </clipPath>
    <clipPath
       id="clipPath2882-7-0"
       clipPathUnits="userSpaceOnUse">
      <path
         style="clip-rule:evenodd"
         inkscape:connector-curvature="0"
         id="path2880-5-9"
         d="M 777.21301,571.01196 H 1246.3566 V 940.07153 H 777.21301 Z" />
    </clipPath>
  </defs>
  <metadata
     id="metadata818">
    <rdf:RDF>
      <cc:Work
         rdf:about="">
        <dc:format>image/svg+xml</dc:format>
        <dc:type
           rdf:resource="http://purl.org/dc/dcmitype/StillImage" />
        <dc:title />
      </cc:Work>
    </rdf:RDF>
  </metadata>
  <g
     style="display:none"
     id="layer1"
     inkscape:groupmode="layer"
     inkscape:label="master">
    <rect
       inkscape:export-ydpi="491.51999"
       inkscape:export-xdpi="491.51999"
       inkscape:export-filename="/home/daniele/hack/git/barot/pwa-barot/src/assets/icons/icon-512x512.png"
       ry="0"
       y="0"
       x="0"
       height="100"
       width="100"
       id="rect812"
       style="opacity:1;vector-effect:none;fill:#ffe680;fill-opacity:1;stroke:none;stroke-width:7.88732386;stroke-linecap:round;stroke-linejoin:round;stroke-miterlimit:4;stroke-dasharray:none;stroke-dashoffset:0;stroke-opacity:1;paint-order:markers fill stroke" />
    <rect
       inkscape:export-ydpi="491.51999"
       inkscape:export-xdpi="491.51999"
       inkscape:export-filename="/home/daniele/hack/git/barot/pwa-barot/src/assets/icons/icon-512x512.png"
       style="opacity:1;vector-effect:none;fill:#ffeeaa;fill-opacity:1;stroke:none;stroke-width:7.23943663;stroke-linecap:round;stroke-linejoin:round;stroke-miterlimit:4;stroke-dasharray:none;stroke-dashoffset:0;stroke-opacity:1;paint-order:markers fill stroke"
       id="rect814"
       width="91.785713"
       height="91.785713"
       x="4.1071429"
       y="4.1071429"
       ry="13.75" />
    <path
       inkscape:export-ydpi="491.51999"
       inkscape:export-xdpi="491.51999"
       inkscape:export-filename="/home/daniele/hack/git/barot/pwa-barot/src/assets/icons/icon-512x512.png"
       sodipodi:nodetypes="cccccccsssccccccccccccccscscsssccccccccsscccccccssscscscscccscscscssscscssccscsccccccccccccccccccccccccscscscccccccccccscscscccscscssssscscsccccccscscscscssscccccccccssscscscccccsccccscsccscscscsccscscscsccssssscscscccccscscscscscscscscscscscccccsscccccsccccccccscsccccccccccccccscscsssccccccccsscccccccscccccsccccscsccscscscsccscscscsccccccccccccccccccccccccccccccccccccccccccccccccccccccccccccccccccccccccccccccccccccccccccccccccccccccccccccccccccccccccccccccccccccccccccccccccccccccccccccccccccccccccccccccccccccccccccccccccccccccccccccccccccccccccccccccccccccccccccccccccccccccccccccccccccccccccccccccc"
       inkscape:connector-curvature="0"
       id="path827"
       d="m 9.0708858,87.285347 v -0.39322 H 9.8573254 10.643765 V 84.363854 81.83558 l -0.568104,0.562174 c -0.6987996,0.691509 -1.0047752,0.749782 -1.0047752,0.191363 0,-0.333794 0.081165,-0.451559 0.813069,-1.17966 C 10.6107,80.68649 10.735944,80.600615 11.063614,80.600615 h 0.366591 v 3.145758 3.145754 h 0.78644 0.786438 v 0.39322 0.39322 H 11.036985 9.0708858 Z M 20.081035,87.034704 c 0,-0.369474 0.05997,-0.756989 0.140728,-0.909321 0.0774,-0.146001 0.785194,-0.906322 1.572875,-1.689605 l 1.432156,-1.424149 v -0.570996 c 0,-0.475164 -0.0405,-0.611485 -0.241298,-0.812286 -0.210816,-0.210816 -0.329334,-0.241293 -0.938362,-0.241293 -0.609028,0 -0.72755,0.03046 -0.938366,0.241293 -0.132711,0.132711 -0.241293,0.30966 -0.241293,0.39322 0,0.111712 -0.104087,0.151927 -0.39322,0.151927 -0.356584,0 -0.39322,-0.02351 -0.39322,-0.252228 0,-0.32403 0.145478,-0.602724 0.522603,-1.001161 l 0.302405,-0.31949 h 1.141091 1.141092 l 0.3024,0.31949 c 0.166323,0.175721 0.351949,0.416116 0.412507,0.534216 0.161928,0.315801 0.140322,1.85157 -0.0306,2.174049 -0.07738,0.146002 -0.740938,0.862049 -1.474577,1.591211 -0.733634,0.729161 -1.333884,1.403779 -1.333884,1.49915 0,0.157953 0.131329,0.173396 1.474572,0.173396 h 1.474577 v 0.39322 0.39322 h -1.966099 -1.9661 z m 6.098918,0.386392 c -0.363557,-0.305914 -0.59384,-0.718812 -0.59384,-1.06476 0,-0.226885 0.03729,-0.250648 0.39322,-0.250648 0.289132,0 0.393219,0.04024 0.393219,0.151927 0,0.08356 0.108582,0.260508 0.241293,0.393219 0.210816,0.210821 0.329339,0.241293 0.938367,0.241293 0.609028,0 0.727546,-0.03046 0.938362,-0.241293 0.21082,-0.210816 0.241297,-0.329338 0.241297,-0.938366 0,-0.609024 -0.03046,-0.727546 -0.241297,-0.938362 -0.222482,-0.222487 -0.314441,-0.241293 -1.179659,-0.241293 h -0.938363 v -0.39322 -0.39322 h 0.938363 c 0.865218,0 0.957177,-0.0188 1.179659,-0.241297 0.21082,-0.210816 0.241297,-0.329334 0.241297,-0.938362 0,-0.609028 -0.03046,-0.727551 -0.241297,-0.938367 -0.210816,-0.210816 -0.329334,-0.241293 -0.938362,-0.241293 -0.609028,0 -0.727551,0.03046 -0.938367,0.241293 -0.132711,0.132711 -0.241293,0.30966 -0.241293,0.39322 0,0.111712 -0.104087,0.151927 -0.393219,0.151927 -0.355942,0 -0.39322,-0.02377 -0.39322,-0.250644 0,-0.345952 0.230283,-0.75885 0.59384,-1.064764 0.288939,-0.243129 0.365397,-0.257471 1.372259,-0.257471 1.006861,0 1.083316,0.01435 1.372254,0.257471 0.476282,0.400765 0.593845,0.719864 0.593845,1.611901 0,0.817973 -0.07146,1.06285 -0.42264,1.448418 l -0.201461,0.221188 0.201461,0.221183 c 0.351182,0.385573 0.42264,0.63045 0.42264,1.448419 0,0.892037 -0.117563,1.211135 -0.593845,1.611901 -0.288938,0.243128 -0.365393,0.257471 -1.372254,0.257471 -1.006862,0 -1.08332,-0.01435 -1.372259,-0.257471 z m 8.056992,-1.315408 v -1.572875 h -1.57288 -1.572875 v -1.966099 -1.966099 h 0.393216 0.39322 v 1.572879 1.572879 h 1.179659 1.17966 v -1.572879 -1.572879 h 0.393219 0.39322 v 3.538978 3.538974 h -0.39322 -0.393219 z m 2.359318,1.179659 v -0.39322 h 1.331587 c 1.282708,0 1.340439,-0.0088 1.572879,-0.241293 0.210816,-0.210816 0.241293,-0.329338 0.241293,-0.938366 0,-0.609024 -0.03046,-0.727546 -0.241293,-0.938362 -0.23244,-0.232436 -0.290171,-0.241293 -1.572879,-0.241293 h -1.331587 v -1.966099 -1.966099 h 1.9661 1.966099 v 0.393219 0.39322 h -1.57288 -1.572879 v 1.17966 1.179659 h 1.122963 c 1.068026,0 1.137934,0.01259 1.428955,0.257471 0.489036,0.411499 0.593841,0.713045 0.593841,1.708624 0,0.995583 -0.104805,1.29713 -0.593841,1.708628 -0.301155,0.253403 -0.329945,0.257471 -1.822175,0.257471 h -1.516183 z m 6.098918,0.135749 c -0.577059,-0.485562 -0.59384,-0.578305 -0.59384,-3.281503 0,-2.703198 0.01677,-2.795945 0.59384,-3.281507 0.288939,-0.243129 0.365393,-0.257471 1.372259,-0.257471 1.006862,0 1.083316,0.01435 1.372255,0.257471 0.363561,0.305914 0.59384,0.718812 0.59384,1.064764 0,0.22688 -0.03729,0.250644 -0.39322,0.250644 -0.289132,0 -0.39322,-0.04024 -0.39322,-0.151927 0,-0.08356 -0.108582,-0.260509 -0.241293,-0.39322 -0.210816,-0.210816 -0.329338,-0.241293 -0.938362,-0.241293 -0.609028,0 -0.72755,0.03046 -0.938366,0.241293 -0.222487,0.222482 -0.241293,0.314446 -0.241293,1.17966 v 0.938366 h 1.122962 c 1.068027,0 1.137935,0.01259 1.428952,0.257471 0.491597,0.413651 0.593884,0.711531 0.593474,1.72832 -3.91e-4,1.037519 -0.151341,1.408828 -0.711446,1.750326 -0.264128,0.161039 -0.496005,0.195408 -1.320471,0.195712 -0.93573,3.91e-4 -1.019773,-0.0162 -1.306071,-0.257106 z m 2.310621,-0.770262 c 0.210821,-0.210816 0.241293,-0.329338 0.241293,-0.938366 0,-0.609024 -0.03046,-0.727546 -0.241293,-0.938362 -0.222482,-0.222487 -0.314441,-0.241293 -1.179659,-0.241293 h -0.938362 v 0.938362 c 0,0.865218 0.0188,0.957177 0.241293,1.179659 0.210816,0.210821 0.329338,0.241293 0.938366,0.241293 0.609024,0 0.727546,-0.03046 0.938362,-0.241293 z m 3.387052,0.486271 c 0,-0.495348 0.100473,-0.742272 1.179659,-2.899209 0.64881,-1.29676 1.179658,-2.468694 1.179658,-2.604292 v -0.24655 h -1.572878 -1.572879 v -0.39322 -0.393219 h 1.966099 1.966098 v 0.836379 0.836379 l -1.179659,2.357743 c -0.835088,1.66906 -1.179659,2.458475 -1.179659,2.702599 0,0.336791 -0.0092,0.344852 -0.393219,0.344852 h -0.39322 z m 9.244675,0.283991 c -0.489229,-0.411661 -0.59384,-0.712931 -0.59384,-1.710209 0,-0.913366 0.0661,-1.15527 0.42264,-1.546721 l 0.201461,-0.221183 -0.201461,-0.221188 c -0.346213,-0.380105 -0.422654,-0.628076 -0.422275,-1.369807 3.92e-4,-0.826945 0.187453,-1.235814 0.711442,-1.555296 0.464449,-0.283176 2.044125,-0.283176 2.508574,0 0.523994,0.319482 0.711024,0.728351 0.711447,1.555296 3.92e-4,0.741731 -0.07607,0.989702 -0.422275,1.369807 l -0.201461,0.221188 0.201461,0.221183 c 0.35654,0.391451 0.42264,0.633355 0.42264,1.546721 0,0.997278 -0.104611,1.298548 -0.59384,1.710209 -0.288939,0.243128 -0.365393,0.257471 -1.372259,0.257471 -1.006861,0 -1.083315,-0.01435 -1.372254,-0.257471 z m 2.310621,-0.770262 c 0.210816,-0.210816 0.241293,-0.329338 0.241293,-0.938366 0,-0.609024 -0.03046,-0.727546 -0.241293,-0.938362 -0.210816,-0.210821 -0.329339,-0.241293 -0.938367,-0.241293 -0.609028,0 -0.727546,0.03046 -0.938362,0.241293 -0.21082,0.210816 -0.241297,0.329338 -0.241297,0.938362 0,0.609028 0.03046,0.72755 0.241297,0.938366 0.210816,0.210821 0.329334,0.241293 0.938362,0.241293 0.609028,0 0.727551,-0.03046 0.938367,-0.241293 z m -0.09294,-3.238699 c 0.307591,-0.307596 0.334234,-0.38239 0.334234,-0.938366 0,-0.510347 -0.03746,-0.641583 -0.241293,-0.845422 -0.210816,-0.210816 -0.329339,-0.241293 -0.938367,-0.241293 -0.609028,0 -0.727546,0.03046 -0.938362,0.241293 -0.203838,0.203839 -0.241297,0.335075 -0.241297,0.845422 0,0.555976 0.02663,0.63077 0.334238,0.938366 0.294411,0.294411 0.395148,0.334238 0.845421,0.334238 0.450278,0 0.551015,-0.03984 0.845426,-0.334238 z m 3.287393,4.008961 c -0.363557,-0.305914 -0.59384,-0.718812 -0.59384,-1.06476 0,-0.226885 0.03729,-0.250648 0.39322,-0.250648 0.289132,0 0.393219,0.04024 0.393219,0.151927 0,0.08356 0.108582,0.260508 0.241293,0.393219 0.210821,0.210821 0.329339,0.241293 0.938367,0.241293 0.609028,0 0.727546,-0.03046 0.938366,-0.241293 0.222482,-0.222482 0.241293,-0.314441 0.241293,-1.179659 v -0.938362 h -1.122962 c -1.068027,0 -1.137935,-0.01259 -1.428956,-0.257476 -0.491593,-0.413646 -0.59388,-0.71153 -0.59347,-1.728319 3.91e-4,-1.037519 0.151336,-1.408824 0.711442,-1.750326 0.264128,-0.16104 0.496004,-0.195408 1.320471,-0.195712 0.935729,-3.92e-4 1.019773,0.0162 1.306075,0.257106 0.577054,0.485562 0.59384,0.578309 0.59384,3.281507 0,2.703198 -0.01677,2.795941 -0.59384,3.281503 -0.288943,0.243128 -0.365398,0.257471 -1.372259,0.257471 -1.006862,0 -1.083316,-0.01435 -1.372259,-0.257471 z m 2.551918,-4.613089 c 0,-0.865214 -0.0188,-0.957178 -0.241293,-1.17966 -0.21082,-0.210816 -0.329338,-0.241293 -0.938366,-0.241293 -0.609028,0 -0.727546,0.03046 -0.938367,0.241293 -0.210816,0.210816 -0.241293,0.329339 -0.241293,0.938367 0,0.609028 0.03046,0.727546 0.241293,0.938362 0.222487,0.222486 0.314446,0.241297 1.17966,0.241297 h 0.938366 z m 2.953159,4.613089 c -0.577058,-0.485562 -0.59384,-0.578305 -0.59384,-3.281503 0,-2.703198 0.01677,-2.795945 0.59384,-3.281507 0.288939,-0.243129 0.365394,-0.257471 1.372259,-0.257471 1.006862,0 1.083316,0.01435 1.372255,0.257471 0.577059,0.485562 0.59384,0.578309 0.59384,3.281507 0,2.703198 -0.01677,2.795941 -0.59384,3.281503 -0.288939,0.243128 -0.365393,0.257471 -1.372255,0.257471 -1.006865,0 -1.08332,-0.01435 -1.372259,-0.257471 z m 2.31062,-0.770262 0.241293,-0.241293 V 84.139593 81.86964 L 70.9583,81.628347 c -0.210816,-0.210816 -0.329338,-0.241293 -0.938362,-0.241293 -0.609028,0 -0.72755,0.03046 -0.938366,0.241293 l -0.241293,0.241293 v 2.269953 2.269948 l 0.241293,0.241293 c 0.210816,0.210821 0.329338,0.241293 0.938366,0.241293 0.609024,0 0.727546,-0.03046 0.938362,-0.241293 z m 2.600612,0.634513 v -0.39322 h 0.78644 0.78644 V 84.363854 81.83558 l -0.568105,0.562174 c -0.698799,0.691509 -1.004775,0.749782 -1.004775,0.191363 0,-0.333794 0.08117,-0.451559 0.813069,-1.17966 0.726745,-0.722967 0.85199,-0.808842 1.17966,-0.808842 h 0.36659 v 3.145758 3.145754 h 0.78644 0.78644 v 0.39322 0.39322 h -1.966099 -1.9661 z m 5.505078,-0.250643 c 0,-0.369474 0.05997,-0.756989 0.140723,-0.909321 0.0774,-0.146001 0.785198,-0.906322 1.572879,-1.689605 l 1.432157,-1.424149 v -0.570996 c 0,-0.475164 -0.0405,-0.611485 -0.241298,-0.812286 -0.210816,-0.210816 -0.329334,-0.241293 -0.938362,-0.241293 -0.609028,0 -0.72755,0.03046 -0.938366,0.241293 -0.132711,0.132711 -0.241293,0.30966 -0.241293,0.39322 0,0.111712 -0.104088,0.151927 -0.39322,0.151927 -0.356584,0 -0.39322,-0.02351 -0.39322,-0.252228 0,-0.32403 0.145477,-0.602724 0.522603,-1.001161 l 0.302405,-0.31949 h 1.141091 1.141091 l 0.302401,0.31949 c 0.166322,0.175721 0.351949,0.416116 0.412506,0.534216 0.161929,0.315801 0.140323,1.85157 -0.0306,2.174049 -0.07738,0.146002 -0.740938,0.862049 -1.474577,1.591211 -0.733634,0.729161 -1.333884,1.403779 -1.333884,1.49915 0,0.157953 0.131328,0.173396 1.474572,0.173396 h 1.474576 v 0.39322 0.39322 H 81.03008 79.063981 Z m 6.098918,0.386392 c -0.489234,-0.411661 -0.593845,-0.712931 -0.593845,-1.710209 0,-0.913366 0.0661,-1.15527 0.42264,-1.546721 l 0.201461,-0.221183 -0.201461,-0.221188 c -0.346208,-0.380105 -0.422649,-0.628076 -0.42227,-1.369807 3.92e-4,-0.826945 0.187453,-1.235814 0.711442,-1.555296 0.464449,-0.283176 2.044125,-0.283176 2.508574,0 0.523994,0.319482 0.711024,0.728351 0.711447,1.555296 3.92e-4,0.741731 -0.07607,0.989702 -0.422275,1.369807 l -0.201461,0.221188 0.201461,0.221183 c 0.35654,0.391451 0.42264,0.633355 0.42264,1.546721 0,0.997278 -0.104611,1.298548 -0.59384,1.710209 -0.288939,0.243128 -0.365393,0.257471 -1.372259,0.257471 -1.006861,0 -1.083316,-0.01435 -1.372254,-0.257471 z m 2.310621,-0.770262 c 0.210816,-0.210816 0.241293,-0.329338 0.241293,-0.938366 0,-0.609024 -0.03046,-0.727546 -0.241293,-0.938362 -0.210816,-0.210821 -0.329339,-0.241293 -0.938367,-0.241293 -0.609028,0 -0.727546,0.03046 -0.938362,0.241293 -0.21082,0.210816 -0.241297,0.329338 -0.241297,0.938362 0,0.609028 0.03046,0.72755 0.241297,0.938366 0.210816,0.210821 0.329334,0.241293 0.938362,0.241293 0.609028,0 0.727551,-0.03046 0.938367,-0.241293 z m -0.09294,-3.238699 c 0.307591,-0.307596 0.334234,-0.38239 0.334234,-0.938366 0,-0.510347 -0.03746,-0.641583 -0.241293,-0.845422 -0.210816,-0.210816 -0.329339,-0.241293 -0.938367,-0.241293 -0.609028,0 -0.727546,0.03046 -0.938362,0.241293 -0.203838,0.203839 -0.241297,0.335075 -0.241297,0.845422 0,0.555976 0.02663,0.63077 0.334238,0.938366 0.294411,0.294411 0.395148,0.334238 0.845421,0.334238 0.450278,0 0.551015,-0.03984 0.845426,-0.334238 z M 16.935277,62.463356 v -9.666265 h 0.393219 0.39322 v 9.666265 21.283017 h -0.39322 -0.393219 z m 1.572879,0 v -9.666265 h 0.39322 0.39322 v 9.666265 21.283017 h -0.39322 -0.39322 z m 34.603334,0 v -9.666265 h 0.39322 0.39322 v 9.666265 21.283017 h -0.39322 -0.39322 z m 1.57288,0 v -9.666265 h 0.393219 0.39322 v 9.666265 21.283017 h -0.39322 -0.393219 z m 34.603331,0 v -9.666265 h 0.39322 0.39322 v 9.666265 21.283017 h -0.39322 -0.39322 z m 1.572879,0 v -9.666265 h 0.39322 0.39322 v 9.666265 21.283017 H 91.2538 90.86058 Z M 20.867475,60.497257 v -7.700166 h 0.39322 0.39322 v 7.700166 19.316918 h -0.39322 -0.39322 z m 2.359319,0 v -7.700166 h 0.786439 0.78644 v 7.700166 19.316918 h -0.78644 -0.786439 z m 2.359319,0 v -7.700166 h 1.572879 1.572879 v 7.700166 19.316918 h -1.572879 -1.572879 z m 3.932198,0 v -7.700166 h 0.39322 0.39322 v 7.700166 19.316918 h -0.39322 -0.39322 z m 2.359315,0 v -7.700166 h 1.179659 1.17966 v 7.700166 19.316918 h -1.17966 -1.179659 z m 3.145758,0 v -7.700166 h 0.39322 0.39322 v 7.700166 19.316918 h -0.39322 -0.39322 z m 1.572879,0 v -7.700166 h 0.78644 0.78644 v 7.700166 19.316918 h -0.78644 -0.78644 z m 3.932199,0 v -7.700166 h 0.39322 0.393219 v 7.700166 19.316918 h -0.393219 -0.39322 z m 3.932194,0 v -7.700166 h 0.393219 0.39322 v 7.700166 19.316918 h -0.39322 -0.393219 z m 1.572879,0 v -7.700166 h 0.39322 0.393219 v 7.700166 19.316918 h -0.393219 -0.39322 z m 2.359319,0 v -7.700166 h 0.39322 0.393219 v 7.700166 19.316918 h -0.393219 -0.39322 z m 3.145757,0 v -7.700166 h 0.39322 0.39322 v 7.700166 19.316918 h -0.39322 -0.39322 z m 4.718638,0 v -7.700166 h 0.39322 0.39322 v 7.700166 19.316918 h -0.39322 -0.39322 z m 2.359314,0 v -7.700166 h 0.39322 0.39322 v 7.700166 19.316918 h -0.39322 -0.39322 z m 3.145759,0 v -7.700166 h 1.17966 1.179659 v 7.700166 19.316918 h -1.179659 -1.17966 z m 3.145759,0 v -7.700166 h 0.393219 0.39322 v 7.700166 19.316918 H 65.3013 64.908081 Z m 2.359319,0 v -7.700166 h 1.179659 1.17966 v 7.700166 19.316918 H 68.447059 67.2674 Z m 3.932193,0 v -7.700166 h 0.39322 0.39322 v 7.700166 19.316918 h -0.39322 -0.39322 z m 1.57288,0 v -7.700166 h 0.786439 0.78644 v 7.700166 19.316918 h -0.78644 -0.786439 z m 3.145758,0 v -7.700166 h 0.78644 0.78644 v 7.700166 19.316918 h -0.78644 -0.78644 z m 2.359319,0 v -7.700166 h 0.78644 0.78644 v 7.700166 19.316918 h -0.78644 -0.78644 z m 2.359319,0 v -7.700166 h 0.78644 0.78644 v 7.700166 19.316918 h -0.78644 -0.78644 z m 3.145754,0 v -7.700166 h 0.39322 0.39322 v 7.700166 19.316918 h -0.39322 -0.39322 z m 2.359319,0 v -7.700166 h 0.39322 0.39322 v 7.700166 19.316918 h -0.39322 -0.39322 z"
       style="fill:#000000;stroke-width:0.09830493" />
    <path
       inkscape:connector-curvature="0"
       inkscape:export-ydpi="491.51999"
       inkscape:export-xdpi="491.51999"
       inkscape:export-filename="/home/daniele/hack/git/barot/pwa-barot/src/assets/icons/icon-512x512.png"
       id="rect829"
       d="m 11.505859,11.542969 v 8 8 h 5.347657 v 21.339843 h 0.08203 v 3.66211 h 74.642578 v -8 -8 h -8 v 8 H 78.25 v -8 h -8 v 8 h -5.328125 v -8 h -8 v 8 h -5.330078 v -8 h -8 v 8 H 40.814453 V 27.542969 h 5.347656 v -8 -8 h -8 v 8 h -5.328125 v -8 h -8 v 8 h -5.328125 v -8 z"
       style="opacity:1;vector-effect:none;fill:#000000;fill-opacity:1;stroke:none;stroke-width:1.35337067;stroke-linecap:round;stroke-linejoin:round;stroke-miterlimit:4;stroke-dasharray:none;stroke-dashoffset:0;stroke-opacity:1;paint-order:markers fill stroke" />
    <text
       id="text912"
       y="133.58757"
       x="-17.425131"
       style="font-style:normal;font-variant:normal;font-weight:normal;font-stretch:normal;font-size:40px;line-height:1.25;font-family:'Alice in Wonderland';-inkscape-font-specification:'Alice in Wonderland, Normal';font-variant-ligatures:normal;font-variant-caps:normal;font-variant-numeric:normal;font-feature-settings:normal;text-align:start;letter-spacing:0px;word-spacing:0px;writing-mode:lr-tb;text-anchor:start;display:inline;fill:#000000;fill-opacity:1;stroke:none"
       xml:space="preserve"><tspan
         y="133.58757"
         x="-17.425131"
         id="tspan910"
         sodipodi:role="line">Alice a Lucca</tspan></text>
  </g>
  <g
     style="display:none"
     inkscape:label="camera"
     id="layer2"
     inkscape:groupmode="layer">
    <path
       inkscape:connector-curvature="0"
       id="path31"
       d="M 12.295827,92.989568 C 8.0113666,91.500662 4.3712474,88.22393 2.2778266,83.97166 -0.00592503,79.332781 0.00418377,79.460473 2.6065892e-5,55.201166 -0.00211033,42.691574 0.12729797,32.817225 0.30796747,31.705261 0.79418317,28.712811 2.5332593,25.532308 4.8623579,23.375967 8.5465846,19.965026 11.538194,19.078211 19.360555,19.078211 h 5.487694 l 0.140886,-3.756151 c 0.09803,-2.613343 0.298232,-4.055234 0.658053,-4.739186 0.755564,-1.4361913 2.887991,-3.2392583 4.292075,-3.6291519 0.79728,-0.2213911 7.77857,-0.3397813 20.105024,-0.3409445 21.36934,-0.00214 20.860786,-0.054253 23.097768,2.3725857 1.501186,1.6285917 1.973527,3.3976227 1.973527,7.3913697 v 2.701478 h 5.520772 c 7.929102,0 11.009252,0.944463 14.81936,4.54406 2.11443,1.997612 3.83217,5.373606 4.28861,8.428738 0.22132,1.481335 0.301136,9.933937 0.23092,24.454921 -0.0986,20.387063 -0.15438,22.334076 -0.68641,23.949338 -1.73958,5.281405 -5.14197,9.417875 -9.598623,11.669555 l -2.52783,1.277167 -36.632008,0.07225 C 16.421084,93.5415 13.788002,93.50811 12.295827,92.989573 Z M 56.734432,81.997255 c 5.543769,-1.266041 11.514756,-5.061146 15.08902,-9.59045 4.442893,-5.630011 6.418967,-11.76001 6.061688,-18.804001 C 77.65725,49.109712 77.121783,47.030766 75.126887,42.893786 66.838605,25.705745 44.317269,21.679921 30.588407,34.932269 26.533895,38.846049 23.62637,44.18 22.506801,49.758239 c -0.72242,3.599447 -0.491008,9.439175 0.498839,12.58814 2.662545,8.470294 7.78786,14.451558 15.50748,18.09729 1.781148,0.841177 6.510877,2.072448 9.11066,2.371735 1.992807,0.229415 6.163608,-0.14513 9.110652,-0.818149 z M 44.601068,76.105536 C 38.410374,74.608492 32.523087,69.542053 30.019001,63.556609 27.598499,57.770948 27.563417,52.337481 29.909296,46.56424 c 2.034497,-5.006927 6.622412,-9.602486 11.803827,-11.823503 1.800122,-0.771618 6.097658,-1.596951 8.315394,-1.596951 1.975934,0 5.770086,0.692492 7.814767,1.426314 2.504404,0.89882 5.969415,3.309907 8.165457,5.681836 3.479575,3.758261 5.915248,9.751344 5.907709,14.536162 -0.0063,3.947902 -1.492886,8.814487 -3.739408,12.240939 -2.712475,4.137127 -8.160152,7.978203 -12.899606,9.095305 -2.581693,0.608516 -8.122595,0.598757 -10.676363,-0.0188 z m 10.535003,-9.894701 c 2.673495,-1.302033 5.293634,-3.971289 6.259424,-6.376782 0.623143,-1.552058 0.769539,-2.492109 0.771252,-4.95256 0.0021,-2.753004 -0.09308,-3.237839 -1.016252,-5.186608 -2.799443,-5.909488 -9.431764,-8.610945 -15.514821,-6.319445 -9.252332,3.485375 -10.748962,16.161361 -2.572355,21.787017 2.429163,1.671305 4.361991,2.214828 7.437508,2.091476 2.211181,-0.0887 3.074414,-0.282952 4.635244,-1.043098 z"
       style="fill:#808080;stroke-width:0.31967217" />
  </g>
  <g
     inkscape:groupmode="layer"
     id="layer39"
     inkscape:label="rotate screen"
     style="display:none">
    <g
       id="screen-rotate"
       inkscape:label="#g4587">
      <path
         inkscape:connector-curvature="0"
         id="path4560"
         d="m 33.180866,70.249455 c -0.965874,-0.450686 -1.659212,-1.185924 -2.218102,-2.35213 l -0.47046,-0.981679 V 54.685431 c 0,-12.097712 0.0032,-12.2387 0.292021,-13.010731 0.407404,-1.088888 1.292119,-2.125785 2.210845,-2.591133 l 0.754257,-0.382045 29.244802,-0.0019 c 16.592245,-0.0013 29.426393,0.05094 29.664543,0.120645 1.29137,0.377887 2.37809,1.287174 2.92412,2.446705 l 0.32634,0.693001 10e-4,12.689425 0.001,12.689423 -0.35317,0.708703 c -0.4227,0.848245 -1.36608,1.753503 -2.25591,2.164742 l -0.64811,0.299504 -29.383399,0.03396 -29.383401,0.03396 z M 88.150292,54.502659 V 40.642225 l -24.844215,0.03506 -24.844218,0.03506 -0.03532,13.825443 -0.03531,13.82544 H 63.270762 88.150298 Z M 8.428876,68.096172 C 7.461523,67.717924 6.863335,67.309118 6.238465,66.599228 5.184542,65.40191 5.259556,67.89278 5.299984,35.436142 L 5.336264,6.3333309 5.79254,5.4065359 c 0.495982,-1.007452 1.209198,-1.716296 2.191419,-2.177996 0.598175,-0.281175 0.778893,-0.285049 13.305153,-0.285049 h 12.69875 l 0.821233,0.437716 c 0.972072,0.518106 1.552428,1.139478 2.044871,2.189378 L 37.21448,6.3392129 37.25199,22.035774 37.2895,37.73233 H 36.38572 35.48194 V 24.010869 10.289376 H 21.206045 6.930149 v 25.225369 25.225367 h 11.365277 11.365277 v 3.052685 c 0,2.657366 0.03454,3.150953 0.266707,3.811526 l 0.266713,0.75884 -10.557828,-0.0065 C 9.737639,68.350863 9.03791,68.334323 8.428876,68.096186 Z m 49.40198,-33.503374 c -2.736524,-4.736565 -3.242616,-5.623411 -3.311399,-5.802664 -0.06568,-0.171144 0.108849,-0.205471 1.044787,-0.205471 h 1.123635 v -0.408669 c 0,-0.919223 -0.438142,-3.656799 -0.766743,-4.790738 -1.575857,-5.437953 -5.619447,-8.604084 -11.772229,-9.217644 -0.836114,-0.08338 -1.912006,-0.109643 -2.390866,-0.05836 l -0.870667,0.09324 v -1.734593 -1.734593 l 0.935557,-0.09385 c 0.514556,-0.05165 1.712597,-0.02234 2.662305,0.0651 4.232636,0.389631 7.792071,1.909972 10.50503,4.487018 2.903724,2.758262 4.576187,6.610364 5.047609,11.625967 l 0.166096,1.767157 h 1.083278 c 0.595799,0 1.083271,0.04939 1.083271,0.109728 0,0.12905 -3.697211,6.553543 -3.872157,6.72849 -0.06641,0.06641 -0.361734,-0.300834 -0.667507,-0.830083 z"
         style="fill:#000000;stroke:none;stroke-width:1px;stroke-linecap:butt;stroke-linejoin:miter;stroke-opacity:1" />
      <text
         xml:space="preserve"
         style="font-style:normal;font-variant:normal;font-weight:bold;font-stretch:normal;font-size:4.92386913px;line-height:1.25;font-family:BodoniFLF;-inkscape-font-specification:'BodoniFLF, Bold';font-variant-ligatures:normal;font-variant-caps:normal;font-variant-numeric:normal;font-feature-settings:normal;text-align:center;letter-spacing:0px;word-spacing:0px;writing-mode:lr-tb;text-anchor:middle;fill:#000000;fill-opacity:1;stroke:none;stroke-width:0.3692902"
         x="50.555252"
         y="82.596222"
         id="text2701"><tspan
           sodipodi:role="line"
           id="tspan2699"
           x="50.555252"
           y="82.596222"
           style="stroke-width:0.3692902">...metti il telefono in orizzontale</tspan><tspan
           sodipodi:role="line"
           x="50.555252"
           y="88.75106"
           id="tspan2703"
           style="stroke-width:0.3692902">per entrare nel mondo delle meraviglie</tspan></text>
    </g>
  </g>
  <g
     inkscape:groupmode="layer"
     id="layer48"
     inkscape:label="qr camera"
     style="display:none">
    <path
       style="fill:#ff196c;fill-opacity:1;stroke:none;stroke-width:1px;stroke-linecap:butt;stroke-linejoin:miter;stroke-opacity:1"
       d="M 12.295827,92.989568 C 8.0113666,91.500662 4.3712474,88.22393 2.2778266,83.97166 -0.00592503,79.332781 0.00418377,79.460473 2.6065892e-5,55.201166 -0.00211033,42.691574 0.12729797,32.817225 0.30796747,31.705261 0.79418317,28.712811 2.5332593,25.532308 4.8623579,23.375967 8.5465846,19.965026 11.538194,19.078211 19.360555,19.078211 h 5.487694 l 0.140886,-3.756151 c 0.09803,-2.613343 0.298232,-4.055234 0.658053,-4.739186 0.755564,-1.4361913 2.887991,-3.2392583 4.292075,-3.6291519 0.79728,-0.2213911 7.77857,-0.3397813 20.105024,-0.3409445 21.36934,-0.00214 20.860786,-0.054253 23.097768,2.3725857 1.501186,1.6285917 1.973527,3.3976227 1.973527,7.3913697 v 2.701478 h 5.520772 c 7.929102,0 11.009252,0.944463 14.81936,4.54406 2.11443,1.997612 3.83217,5.373606 4.28861,8.428738 0.22132,1.481335 0.301136,9.933937 0.23092,24.454921 -0.0986,20.387063 -0.15438,22.334076 -0.68641,23.949338 -1.73958,5.281405 -5.14197,9.417875 -9.598623,11.669555 l -2.52783,1.277167 -36.632008,0.07225 C 16.421084,93.5415 13.788002,93.50811 12.295827,92.989573 Z M 56.734432,81.997255 c 5.543769,-1.266041 11.514756,-5.061146 15.08902,-9.59045 4.442893,-5.630011 6.418967,-11.76001 6.061688,-18.804001 C 77.65725,49.109712 77.121783,47.030766 75.126887,42.893786 66.838605,25.705745 44.317269,21.679921 30.588407,34.932269 26.533895,38.846049 23.62637,44.18 22.506801,49.758239 c -0.72242,3.599447 -0.491008,9.439175 0.498839,12.58814 2.662545,8.470294 7.78786,14.451558 15.50748,18.09729 1.781148,0.841177 6.510877,2.072448 9.11066,2.371735 1.992807,0.229415 6.163608,-0.14513 9.110652,-0.818149 z M 44.601068,76.105536 C 38.410374,74.608492 32.523087,69.542053 30.019001,63.556609 27.598499,57.770948 27.563417,52.337481 29.909296,46.56424 c 2.034497,-5.006927 6.622412,-9.602486 11.803827,-11.823503 1.800122,-0.771618 6.097658,-1.596951 8.315394,-1.596951 1.975934,0 5.770086,0.692492 7.814767,1.426314 2.504404,0.89882 5.969415,3.309907 8.165457,5.681836 3.479575,3.758261 5.915248,9.751344 5.907709,14.536162 -0.0063,3.947902 -1.492886,8.814487 -3.739408,12.240939 -2.712475,4.137127 -8.160152,7.978203 -12.899606,9.095305 -2.581693,0.608516 -8.122595,0.598757 -10.676363,-0.0188 z m 10.535003,-9.894701 c 2.673495,-1.302033 5.293634,-3.971289 6.259424,-6.376782 0.623143,-1.552058 0.769539,-2.492109 0.771252,-4.95256 0.0021,-2.753004 -0.09308,-3.237839 -1.016252,-5.186608 -2.799443,-5.909488 -9.431764,-8.610945 -15.514821,-6.319445 -9.252332,3.485375 -10.748962,16.161361 -2.572355,21.787017 2.429163,1.671305 4.361991,2.214828 7.437508,2.091476 2.211181,-0.0887 3.074414,-0.282952 4.635244,-1.043098 z"
       id="path9608"
       inkscape:connector-curvature="0" />
  </g>
  <g
     inkscape:groupmode="layer"
     id="layer49"
     inkscape:label="no camera"
     style="display:none">
    <path
       style="display:inline;fill:#ff196c;fill-opacity:1;stroke:none;stroke-width:1px;stroke-linecap:butt;stroke-linejoin:miter;stroke-opacity:1"
       d="M 89.875,1.2480469 A 10.001,10.001 0 0 0 82.980469,4.2285156 L 4.0410156,82.130859 A 10.001,10.001 0 1 0 18.089844,96.367188 L 97.029297,18.462891 A 10.001,10.001 0 0 0 89.875,1.2480469 Z M 50.044922,6.6132812 c -12.326454,0.00116 -19.308189,0.1184527 -20.105469,0.3398438 -1.404084,0.3898936 -3.537405,2.1927154 -4.292969,3.628906 -0.359821,0.683952 -0.560173,2.126892 -0.658203,4.740235 l -0.140625,3.755859 h -5.486328 c -7.822361,0 -10.8138201,0.885934 -14.4980468,4.296875 C 2.5341826,25.531341 0.79480945,28.712628 0.30859375,31.705078 0.12792425,32.817042 -0.0021364,42.69158 0,55.201172 c 0.00245313,14.313482 0.00409341,20.117217 0.47070312,23.439453 0.033107,-0.03265 0.0602734,-0.06916 0.09375,-0.101563 L 22.175781,57.210938 c -0.175008,-2.60398 -0.08351,-5.392416 0.330078,-7.453126 1.119569,-5.578239 4.02752,-10.912391 8.082032,-14.826171 6.239351,-6.02279 14.293859,-8.464544 22.003906,-7.736329 L 72.101562,7.9414062 C 70.427936,6.578974 67.726616,6.6115105 50.044922,6.6132812 Z M 97.037109,25.478516 76.419922,45.824219 c 0.958321,2.471571 1.297258,4.475167 1.464844,7.779297 0.357279,7.043991 -1.617654,13.172723 -6.060547,18.802734 -3.574264,4.529304 -9.546075,8.325756 -15.089844,9.591797 -2.947044,0.673019 -7.118521,1.045821 -9.111328,0.816406 -1.882269,-0.216687 -4.85901,-0.923227 -7.046875,-1.615234 L 28.123047,93.490234 c 5.38762,0.0084 12.16411,0.0046 22.408203,-0.01563 L 87.162109,93.402344 89.689453,92.125 c 4.456653,-2.25168 7.860029,-6.388517 9.599609,-11.669922 0.532032,-1.615262 0.586947,-3.562156 0.685547,-23.949219 0.07022,-14.520984 -0.0091,-22.973743 -0.230468,-24.455078 -0.335157,-2.243335 -1.354061,-4.655672 -2.707032,-6.572265 z m -50.925781,8.111328 c -1.715789,0.309871 -3.421862,0.731783 -4.398437,1.15039 -5.181415,2.221017 -9.768238,6.817292 -11.802735,11.824219 -0.592174,1.457348 -1.033601,2.893183 -1.322265,4.318359 z M 71.416016,50.763672 60.408203,61.626953 c -0.929975,1.348165 -2.24842,2.644238 -3.679687,3.632813 L 45.556641,76.283203 c 2.793615,0.430635 7.422784,0.383426 9.720703,-0.158203 4.739454,-1.117102 10.187915,-4.958576 12.90039,-9.095703 2.246522,-3.426452 3.731982,-8.292332 3.738282,-12.240235 0.002,-1.277056 -0.180535,-2.641654 -0.5,-4.02539 z"
       id="path9611"
       inkscape:connector-curvature="0" />
  </g>
  <g
     inkscape:groupmode="layer"
     id="layer3"
     inkscape:label="qrcode input">
    <g
       id="qrinput"
       inkscape:label="#g3108">
      <circle
         r="45"
         cy="50"
         cx="50"
         id="path2290"
         style="opacity:1;vector-effect:none;fill:none;fill-opacity:1;stroke:#ff196c;stroke-width:4;stroke-linecap:round;stroke-linejoin:round;stroke-miterlimit:4;stroke-dasharray:none;stroke-dashoffset:0;stroke-opacity:1;paint-order:markers fill stroke" />
      <rect
         ry="10.593989"
         y="13.902814"
         x="2.1860614"
         height="33.463562"
         width="96.018547"
         id="rect2266"
         style="opacity:1;vector-effect:none;fill:#ffffff;fill-opacity:1;stroke:#ff196c;stroke-width:4;stroke-linecap:round;stroke-linejoin:round;stroke-miterlimit:4;stroke-dasharray:none;stroke-dashoffset:0;stroke-opacity:1;paint-order:markers fill stroke" />
      <g
         transform="translate(0,1.8497443)"
         id="text2270"
         style="font-style:normal;font-variant:normal;font-weight:normal;font-stretch:normal;font-size:31.5514698px;line-height:1.25;font-family:sans-serif;-inkscape-font-specification:'sans-serif, Normal';font-variant-ligatures:normal;font-variant-caps:normal;font-variant-numeric:normal;font-feature-settings:normal;text-align:center;letter-spacing:0px;word-spacing:0px;writing-mode:lr-tb;text-anchor:middle;fill:#ff196c;fill-opacity:1;stroke:none;stroke-width:0.78878677"
         aria-label="ABC">
        <path
           inkscape:connector-curvature="0"
           id="path2278"
           style="fill:#ff196c;fill-opacity:1;stroke-width:0.78878677"
           d="m 27.417578,20.487991 -4.221241,11.446652 h 8.457889 z m -1.756283,-3.065792 h 3.527972 l 8.766009,23.001145 H 34.720018 L 32.624803,34.522849 H 22.256571 l -2.095215,5.900495 H 16.87988 Z" />
        <path
           inkscape:connector-curvature="0"
           id="path2280"
           style="fill:#ff196c;fill-opacity:1;stroke-width:0.78878677"
           d="m 44.410387,29.438872 v 8.427077 h 4.991541 q 2.511176,0 3.712844,-1.032201 1.217073,-1.047608 1.217073,-3.18904 0,-2.156839 -1.217073,-3.173635 -1.201668,-1.032201 -3.712844,-1.032201 z m 0,-9.459279 v 6.932696 h 4.606391 q 2.280087,0 3.389318,-0.847329 1.124638,-0.862736 1.124638,-2.619019 0,-1.740877 -1.124638,-2.603612 -1.109231,-0.862736 -3.389318,-0.862736 z m -3.11201,-2.557394 h 7.949491 q 3.558784,0 5.484533,1.478975 1.925749,1.478975 1.925749,4.205836 0,2.11062 -0.985984,3.358506 -0.985983,1.247885 -2.896326,1.556005 2.295493,0.492992 3.558784,2.064403 1.278697,1.556005 1.278697,3.897715 0,3.081199 -2.095215,4.760452 -2.095214,1.679253 -5.962118,1.679253 h -8.257611 z" />
        <path
           inkscape:connector-curvature="0"
           id="path2282"
           style="fill:#ff196c;fill-opacity:1;stroke-width:0.78878677"
           d="m 79.59767,19.193888 v 3.281476 q -1.571411,-1.463569 -3.358506,-2.187651 -1.771689,-0.724081 -3.774468,-0.724081 -3.943933,0 -6.039148,2.41874 -2.095215,2.403335 -2.095215,6.963508 0,4.544768 2.095215,6.963508 2.095215,2.403335 6.039148,2.403335 2.002779,0 3.774468,-0.724082 1.787095,-0.724081 3.358506,-2.18765 v 3.250664 q -1.633035,1.109231 -3.466348,1.663847 -1.817907,0.554615 -3.851498,0.554615 -5.222631,0 -8.226799,-3.18904 -3.004168,-3.204446 -3.004168,-8.735197 0,-5.546157 3.004168,-8.735197 3.004168,-3.204446 8.226799,-3.204446 2.064403,0 3.88231,0.554616 1.833313,0.53921 3.435536,1.633035 z" />
      </g>
      <rect
         style="opacity:1;vector-effect:none;fill:#ff196c;fill-opacity:1;stroke:none;stroke-width:1.31344175;stroke-linecap:round;stroke-linejoin:round;stroke-miterlimit:4;stroke-dasharray:none;stroke-dashoffset:0;stroke-opacity:1;paint-order:markers fill stroke"
         id="rect2276"
         width="32.965"
         height="18.671526"
         x="55.489368"
         y="51.567368"
         ry="5.9110847" />
      <g
         transform="translate(-7.0626599,1.8497443)"
         id="text2274"
         style="font-style:normal;font-variant:normal;font-weight:normal;font-stretch:normal;font-size:16.14177513px;line-height:1.25;font-family:sans-serif;-inkscape-font-specification:'sans-serif, Normal';font-variant-ligatures:normal;font-variant-caps:normal;font-variant-numeric:normal;font-feature-settings:normal;text-align:center;letter-spacing:0px;word-spacing:0px;writing-mode:lr-tb;text-anchor:middle;fill:#ffffff;fill-opacity:1;stroke:none;stroke-width:0.4035444"
         aria-label="OK">
        <path
           inkscape:connector-curvature="0"
           id="path2285"
           style="fill:#ffffff;fill-opacity:1;stroke:none;stroke-width:0.4035444"
           d="m 73.127179,54.241594 q -1.73398,0 -2.758604,1.292603 -1.016743,1.292603 -1.016743,3.523132 0,2.222646 1.016743,3.515249 1.024624,1.292603 2.758604,1.292603 1.73398,0 2.742841,-1.292603 1.016742,-1.292603 1.016742,-3.515249 0,-2.230529 -1.016742,-3.523132 -1.008861,-1.292603 -2.742841,-1.292603 z m 0,-1.292603 q 2.474862,0 3.956627,1.663044 1.481764,1.655162 1.481764,4.445294 0,2.782249 -1.481764,4.445293 -1.481765,1.655163 -3.956627,1.655163 -2.482744,0 -3.97239,-1.655163 -1.481764,-1.655162 -1.481764,-4.445293 0,-2.790132 1.481764,-4.445294 1.489646,-1.663044 3.97239,-1.663044 z" />
        <path
           inkscape:connector-curvature="0"
           id="path2287"
           style="fill:#ffffff;fill-opacity:1;stroke:none;stroke-width:0.4035444"
           d="m 81.056195,53.161797 h 1.592109 v 4.97337 l 5.280756,-4.97337 h 2.049249 l -5.840359,5.485682 6.258091,6.281735 h -2.096539 l -5.651198,-5.666961 v 5.666961 h -1.592109 z" />
      </g>
    </g>
  </g>
  <g
     inkscape:groupmode="layer"
     id="layer47"
     inkscape:label="no fullscreen"
     style="display:none">
    <g
       id="no-fullscreen"
       inkscape:label="#g3055">
      <path
         id="path3049"
         d="M 49.998047,0.49414062 A 49.5042,49.5042 0 0 0 0.49414062,50.001953 49.5042,49.5042 0 0 0 49.998047,99.505859 49.5042,49.5042 0 0 0 99.505859,50.001953 49.5042,49.5042 0 0 0 49.998047,0.49414062 Z m 9.269531,6.38867188 a 3.9452782,3.9452782 0 0 1 2.847656,1.15625 L 91.960938,37.884766 a 3.9452782,3.9452782 0 0 1 -2.789063,6.734375 H 71.705078 a 22.384509,22.384509 0 0 1 0.679688,5.382812 22.384509,22.384509 0 0 1 -0.683594,5.382813 h 17.470703 a 3.9452782,3.9452782 0 0 1 2.789063,6.734375 L 62.115234,91.960938 A 3.9452782,3.9452782 0 0 1 55.382812,89.171875 V 71.705078 a 22.384509,22.384509 0 0 1 -5.384765,0.679688 22.384509,22.384509 0 0 1 -5.382813,-0.683594 v 17.470703 a 3.9452782,3.9452782 0 0 1 -6.734375,2.789063 L 8.0390625,62.119141 a 3.9452782,3.9452782 0 0 1 2.7890625,-6.734375 h 17.466797 a 22.384509,22.384509 0 0 1 -0.679688,-5.382813 22.384509,22.384509 0 0 1 0.683594,-5.382812 H 10.828125 A 3.9452782,3.9452782 0 0 1 8.0390625,37.884766 L 37.880859,8.0390625 a 3.9452782,3.9452782 0 0 1 2.673829,-1.1542969 3.9452782,3.9452782 0 0 1 4.060546,3.9433594 v 17.466797 a 22.384509,22.384509 0 0 1 5.382813,-0.679688 22.384509,22.384509 0 0 1 5.384765,0.683594 V 10.828125 a 3.9452782,3.9452782 0 0 1 3.884766,-3.9453125 z"
         style="display:inline;opacity:1;vector-effect:none;fill:#ff196c;fill-opacity:1;stroke:none;stroke-width:7.78466177;stroke-linecap:round;stroke-linejoin:miter;stroke-miterlimit:4;stroke-dasharray:none;stroke-dashoffset:0;stroke-opacity:1;paint-order:markers fill stroke"
         inkscape:connector-curvature="0" />
      <path
         id="path3045"
         d="M 40.669922,10.828125 10.828125,40.673828 h 21.285156 c 4.74144,0 8.556641,-3.817159 8.556641,-8.558594 z m 18.65625,0 v 21.287109 c 0,4.741435 3.817154,8.558594 8.558594,8.558594 H 89.171875 Z M 10.828125,59.330078 40.669922,89.171875 V 67.886719 c 0,-4.741434 -3.815201,-8.556641 -8.556641,-8.556641 z m 57.056641,0 c -4.74144,0 -8.558594,3.815207 -8.558594,8.556641 V 89.171875 L 89.171875,59.330078 Z"
         style="display:inline;opacity:1;vector-effect:none;fill:#000000;fill-opacity:1;stroke:none;stroke-width:7.78466177;stroke-linecap:round;stroke-linejoin:miter;stroke-miterlimit:4;stroke-dasharray:none;stroke-dashoffset:0;stroke-opacity:1;paint-order:markers fill stroke"
         inkscape:connector-curvature="0" />
    </g>
  </g>
</svg>
